<?xml version="1.0" encoding="UTF-8" standalone="no"?>
<svg
   width="128"
   height="128"
   viewBox="0 0 3 3"
   version="1.1"
   id="svg4"
   sodipodi:docname="Color_PrideFlag_Sapphic.svg"
   inkscape:version="1.4.2 (ebf0e940d0, 2025-05-08)"
   inkscape:export-filename="../PNGs/Color_1024/Color_1024_PrideFlag_Sapphic.png"
   inkscape:export-xdpi="768"
   inkscape:export-ydpi="768"
   xmlns:inkscape="http://www.inkscape.org/namespaces/inkscape"
   xmlns:sodipodi="http://sodipodi.sourceforge.net/DTD/sodipodi-0.dtd"
   xmlns:xlink="http://www.w3.org/1999/xlink"
   xmlns="http://www.w3.org/2000/svg"
   xmlns:svg="http://www.w3.org/2000/svg">
  <defs
     id="defs4">
    <linearGradient
       id="linearGradient20"
       inkscape:collect="always">
      <stop
         style="stop-color:#90378e;stop-opacity:1;"
         offset="0"
         id="stop20" />
      <stop
         style="stop-color:#cd76cb;stop-opacity:1;"
         offset="1"
         id="stop21" />
    </linearGradient>
    <linearGradient
       id="linearGradient18"
       inkscape:collect="always">
      <stop
         style="stop-color:#80307e;stop-opacity:1;"
         offset="0"
         id="stop18" />
      <stop
         style="stop-color:#d18cd0;stop-opacity:1;"
         offset="1"
         id="stop19" />
    </linearGradient>
    <linearGradient
       id="linearGradient16"
       inkscape:collect="always">
      <stop
         style="stop-color:#7c2f7a;stop-opacity:1;"
         offset="0"
         id="stop16" />
      <stop
         style="stop-color:#dd85dc;stop-opacity:1;"
         offset="1"
         id="stop17" />
    </linearGradient>
    <linearGradient
       id="linearGradient14"
       inkscape:collect="always">
      <stop
         style="stop-color:#efa6ec;stop-opacity:1;"
         offset="0"
         id="stop14" />
      <stop
         style="stop-color:#722b70;stop-opacity:1;"
         offset="1"
         id="stop15" />
    </linearGradient>
    <linearGradient
       id="linearGradient12"
       inkscape:collect="always">
      <stop
         style="stop-color:#e699e6;stop-opacity:1;"
         offset="0"
         id="stop12" />
      <stop
         style="stop-color:#932e92;stop-opacity:1;"
         offset="1"
         id="stop13" />
    </linearGradient>
    <linearGradient
       inkscape:collect="always"
       xlink:href="#linearGradient12"
       id="linearGradient13"
       x1="1.1521209"
       y1="1.2896807"
       x2="1.3918173"
       y2="1.4320663"
       gradientUnits="userSpaceOnUse"
       gradientTransform="rotate(-3.294855,1.4654017,1.4281213)" />
    <linearGradient
       inkscape:collect="always"
       xlink:href="#linearGradient14"
       id="linearGradient15"
       x1="1.4577961"
       y1="1.0840248"
       x2="1.4556313"
       y2="1.4086241"
       gradientUnits="userSpaceOnUse"
       gradientTransform="translate(-0.00134105,0.00599439)" />
    <linearGradient
       inkscape:collect="always"
       xlink:href="#linearGradient16"
       id="linearGradient17"
       x1="1.4811091"
       y1="1.4538577"
       x2="1.7427436"
       y2="1.3278298"
       gradientUnits="userSpaceOnUse"
       gradientTransform="translate(0.00442897,-0.00265738)" />
    <linearGradient
       inkscape:collect="always"
       xlink:href="#linearGradient18"
       id="linearGradient19"
       x1="1.5005177"
       y1="1.5113653"
       x2="1.6956751"
       y2="1.7262951"
       gradientUnits="userSpaceOnUse"
       gradientTransform="rotate(-3.8365207,1.5311957,1.6652205)" />
    <linearGradient
       inkscape:collect="always"
       xlink:href="#linearGradient20"
       id="linearGradient21"
       x1="1.4230679"
       y1="1.4922645"
       x2="1.2344111"
       y2="1.7162977"
       gradientUnits="userSpaceOnUse"
       gradientTransform="rotate(6.0132591,1.4216462,1.4763305)" />
    <linearGradient
       inkscape:collect="always"
       xlink:href="#linearGradient18"
       id="linearGradient22"
       gradientUnits="userSpaceOnUse"
       gradientTransform="matrix(-0.99775902,-0.06690989,-0.06690989,0.99775902,3.0126946,0.1029752)"
       x1="1.4882005"
       y1="1.4883639"
       x2="1.6788404"
       y2="1.7293241" />
  </defs>
  <sodipodi:namedview
     id="namedview4"
     pagecolor="#505050"
     bordercolor="#eeeeee"
     borderopacity="1"
     inkscape:showpageshadow="0"
     inkscape:pageopacity="0"
     inkscape:pagecheckerboard="0"
     inkscape:deskcolor="#505050"
     inkscape:zoom="6.0076094"
     inkscape:cx="57.177486"
     inkscape:cy="61.838241"
     inkscape:window-width="1896"
     inkscape:window-height="989"
     inkscape:window-x="20"
     inkscape:window-y="20"
     inkscape:window-maximized="0"
     inkscape:current-layer="svg4"
     inkscape:export-bgcolor="#ffffff00" />
  <mask
     id="m">
    <rect
       width="3"
       height="3"
       fill="#fff"
       rx="0.69375"
       id="rect1" />
  </mask>
  <g
     mask="url(#m)"
     transform="matrix(0.97,0,0,0.97,0.046875,0.046875)"
     transform-origin="center"
     id="g4"
     inkscape:export-filename="Color_1024_PrideFlag_Sapphic.png.png"
     inkscape:export-xdpi="791.75256"
     inkscape:export-ydpi="791.75256">
    <rect
       width="3"
       height="3"
       fill="#6b8e3a"
       id="rect2"
       style="fill:#fd8ba8;fill-opacity:1"
       x="0"
       y="0" />
    <rect
       width="3"
       height="2"
       fill="#ffffff"
       id="rect3"
       x="0"
       y="0" />
    <rect
       width="3"
       height="1"
       fill="#b899dd"
       id="rect4"
       inkscape:label="rect4"
       style="fill:#fd8ba8;fill-opacity:1"
       x="0"
       y="0" />
  </g>
  <g
     id="layer1"
     inkscape:label="violet"
     transform="matrix(1.3678268,0,0,1.3678268,-0.49036044,-0.42216757)"
     inkscape:export-filename="../PNGs/Color_128/Color_128_PrideFlag_Sapphic.png"
     inkscape:export-xdpi="98.96907"
     inkscape:export-ydpi="98.96907">
    <g
       id="g5"
       inkscape:label="center"
       transform="translate(-0.04452943,-0.04452943)">
      <circle
         style="fill:#fd8ba8;fill-opacity:1;stroke-width:0.0316736"
         id="path5"
         cx="1.5005785"
         cy="1.5005785"
         r="0.04678724" />
      <circle
         style="fill:#fff71e;fill-opacity:1;stroke-width:0.0148755"
         id="circle12"
         cx="1.5005785"
         cy="1.5005785"
         r="0.021973539" />
    </g>
    <path
       id="path6"
       style="fill:url(#linearGradient15);stroke-width:0.0234405;stroke-dasharray:none;paint-order:stroke markers fill"
       d="m 1.5817046,1.1332641 c 0.023849,0.034059 -0.00967,0.1340457 -0.047254,0.197827 -0.010023,0.017009 -0.037698,0.069084 -0.05388,0.083887 -0.00824,0.00754 -0.021421,0.00935 -0.028676,0.00935 -0.00481,-1e-7 -0.012984,0.00143 -0.019709,-0.00431 -0.018317,-0.015632 -0.045646,-0.069487 -0.055344,-0.083266 -0.019066,-0.02709 -0.068579,-0.1460471 -0.052715,-0.1983603 0.00997,-0.032885 0.087295,-0.049446 0.1309685,-0.049447 0.080524,-6e-7 0.106288,0.015292 0.1266105,0.044316 z"
       sodipodi:nodetypes="ssscssssss" />
    <path
       id="path7"
       style="fill:url(#linearGradient17);stroke-width:0.0234375"
       d="M 1.7750054,1.444929 C 1.7550864,1.481425 1.5353578,1.484223 1.5074602,1.471452 1.4805952,1.459153 1.4943632,1.465012 1.4871062,1.444762 c -9.109e-4,-0.00916 -0.0057,-0.00252 5.096e-4,-0.023292 0.00948,-0.03174 0.1601506,-0.188901 0.2126829,-0.1744014 0.033126,0.00914 0.062528,0.045396 0.077266,0.08651 0.014742,0.041111 0.019234,0.071448 -0.00255,0.1113523 z"
       sodipodi:nodetypes="sscsssss" />
    <path
       id="path10"
       style="fill:url(#linearGradient19);stroke-width:0.0234375"
       d="m 1.4564357,1.5164926 c 0.00329,-0.029607 0.00889,-0.018458 0.025996,-0.03151 0.014248,-0.010858 0.00464,-0.016975 0.026623,-0.010024 0.031588,0.00999 0.1624686,0.051979 0.1913933,0.098174 C 1.71994,1.6042636 1.723791,1.6628106 1.689073,1.6893 1.654348,1.715787 1.637537,1.723656 1.5841812,1.719773 1.5088422,1.7142939 1.4471955,1.5997227 1.4553666,1.526122 Z"
       sodipodi:nodetypes="scssssss" />
    <path
       id="path11"
       style="display:none;fill:url(#linearGradient21);stroke-width:0.0234375"
       d="m 1.4436474,1.5168148 c 0,0 0.00871,-0.013863 -0.00788,-0.027551 -0.013826,-0.011391 -0.00906,-0.021538 -0.031288,-0.015432 -0.031945,0.00878 -0.2179028,0.065611 -0.2220388,0.1199581 -0.00261,0.034266 0.00462,0.073419 0.038307,0.1012069 0.033694,0.027787 0.069401,0.032337 0.1139307,0.02315 0.073348,-0.015133 0.1099246,-0.2012002 0.108972,-0.2013316 z"
       sodipodi:nodetypes="ccsssscc" />
    <path
       id="path12"
       style="display:inline;fill:url(#linearGradient13);stroke-width:0.0234375"
       d="m 1.1345016,1.420648 c 0.014854,0.038835 0.218227,0.044415 0.2489023,0.043786 0.029784,-6.128e-4 0.038246,0.010137 0.038351,-0.012595 0.00141,-0.020303 0.010451,-0.0096 -1.77e-4,-0.030044 C 1.4063065,1.392397 1.2890334,1.2272346 1.2350328,1.2345706 c -0.034051,0.00462 -0.068043,0.036615 -0.088153,0.075387 -0.020113,0.038767 -0.028627,0.06823 -0.012379,0.1106916 z"
       sodipodi:nodetypes="sscsssss" />
    <path
       id="path21"
       style="display:inline;fill:url(#linearGradient22);stroke-width:0.0234375"
       d="m 1.4482705,1.5132839 c -0.00329,-0.029607 -0.00889,-0.018458 -0.025996,-0.03151 -0.014248,-0.010858 -0.00464,-0.016975 -0.026623,-0.010024 -0.031588,0.00999 -0.1624686,0.051979 -0.1913933,0.098174 -0.019492,0.031131 -0.023343,0.089678 0.011375,0.1161674 0.034725,0.026487 0.051536,0.034356 0.1048918,0.030473 0.075339,-0.00548 0.1369857,-0.1200503 0.1288146,-0.193651 z"
       sodipodi:nodetypes="scssssss" />
  </g>
</svg>
