<?xml version="1.0" encoding="UTF-8"?>
<svg xmlns="http://www.w3.org/2000/svg" width="128" height="128" viewBox="0 0 5 5">
  <mask id="m">
    <rect width="5" height="5" fill="#fff" rx="1.15625" />
  </mask>
  <g mask="url(#m)" transform="scale(0.97)" transform-origin="center">
    <rect width="5" height="5" fill="#ffa8be" />
    <rect width="5" height="4" fill="#cc93ff" />
    <rect width="5" height="3" fill="#ffffff" />
    <rect width="5" height="2" fill="#93dcff" />
    <rect width="5" height="1" fill="#93ffb9" />
    <g id="icon" transform="translate(2.5 0.36) scale(0.017)">
      <path
        fill="white"
        d="M0 159.6ZM0 151.1C-22.5 151.1-40.9 169.5-40.9 192S-22.5 232.8 0 232.8 40.9 214.5 40.9 192 22.5 151.1 0 151.1ZM57.2 149.4H27.9V151.7C67.7 173.7 49.8 240.5 0 240.5S-65.6 172.6-27.9 151.7V149.4H-57.2L0 26.3Z" />
      <path
        d="M0 159.6c-18 0-32.4 14.5-32.4 32.4S-18 224.3 0 224.3 32.4 209.9 32.4 192 18 159.6 0 159.6Zm0-8.5c22.5 0 40.9 18.4 40.9 40.9S22.5 232.8 0 232.8-40.9 214.5-40.9 192-22.5 151.1 0 151.1Zm57.2-1.7H26.8c-.6 0-1.1.2-1.1.8 0 .8 1 .8 2.2 1.5 39.8 22 21.9 88.8-27.9 88.8s-65.6-67.9-27.9-88.8c1.2-.7 2.2-.7 2.2-1.5 0-.6-.5-.8-1.1-.8H-57.2L0 26.3ZM0 0C-.5 0-.8.7-1.4 1.9L-70.7 151.3c-3.2 6.6 1 10 5.2 10H-53c-24 43.1 8.9 89.7 53 90.4 44.1-.7 77-47.3 53-90.4H65.5c4.2 0 8.4-3.4 5.2-10L1.4 1.9C.8.7.5 0 0 0Z" />
    </g>
  </g>
</svg>