<?xml version="1.0" encoding="UTF-8"?>
<svg xmlns="http://www.w3.org/2000/svg" width="128" height="128" viewBox="0 0 3 3">
  <mask id="m">
    <rect width="3" height="3" fill="#fff" rx="0.69375" />
  </mask>
  <g mask="url(#m)" transform="scale(0.97)" transform-origin="center">
    <rect width="3" height="3" fill="#727272" />
    <rect width="3" height="2" fill="#f26092" />
    <rect width="3" height="1" fill="#94c3ef" />
    <g transform="scale(0.75) translate(0.5 0.7)">
      <path fill="#dedda5" stroke="#282828" stroke-width="0.05"
        d="M1.3351 1.0418 1.6055 1.0796 1.4627.7016ZM1.9861 1.3874 2.6628 1.5332C2.5107 1.735 2.4719 1.7853 2.2675 1.9961ZM1.8585 1.1164 1.5235.3914C1.7557.0787 2.1595-.0056 2.419.0521 2.6046.0934 2.7285.1738 2.8244.3198 2.8999.4348 2.9369.5694 2.951.7317 2.9655.8973 2.9268 1.0681 2.8323 1.2522ZM1.2653 1.2319 1.6957 1.3254 2.026 2.2155C1.7626 2.4478 1.479 2.6341 1.2748 2.7088 1.2475 2.7188 1.2287 2.7254 1.1876 2.7268 1.1714 2.7274 1.1537 2.7221 1.1438 2.7077 1.1389 2.7005 1.1402 2.6823 1.139 2.6641 1.1346 2.5985 1.114 2.5151 1.0989 2.4664 1.073 2.3834 1.0336 2.2827.9333 2.1272ZM.1005.979 1.0531 1.1858.7401 1.8571C.535 1.5985.3873 1.4163.3726 1.3969.221 1.197.1729 1.1192.1005.979ZM1.1336 1.0134 1.4272.3827C1.4013.3614 1.2679.2123 1.0535.1079.9476.0562.8328.0204.715.0173.5693.0136.4491.0629.353.1268.2559.1915.1576.2823.1027.3744.0784.4151.0528.4548.0336.5279.022.5718.0129.6336.0211.7137.0262.7637.0403.8152.0549.8617Z" />
    </g>
  </g>
</svg>